<?xml version="1.0" encoding="UTF-8" standalone="no"?>
<!DOCTYPE svg PUBLIC "-//W3C//DTD SVG 1.1//EN" "http://www.w3.org/Graphics/SVG/1.1/DTD/svg11.dtd">
<svg width="100%" height="100%" viewBox="0 0 126 100" version="1.1" xmlns="http://www.w3.org/2000/svg" xmlns:xlink="http://www.w3.org/1999/xlink" xml:space="preserve" style="fill-rule:evenodd;clip-rule:evenodd;stroke-linejoin:round;stroke-miterlimit:1.41421;">
    <g transform="matrix(0.447907,0,0,0.447386,-170.526,4.33892)">
        <g transform="matrix(1,0,0,1,133.77,9.0235)">
            <g transform="matrix(1,0,0,1,0,3)">
                <path d="M419.212,38.176C430.112,28.713 444.338,22.982 459.892,22.982C494.165,22.982 521.991,50.808 521.991,85.082C521.991,119.355 494.165,147.181 459.892,147.181C446.591,147.181 434.261,142.99 424.152,135.857" style="fill:none;stroke-width:8.5px;stroke:rgb(60,85,122);"/>
            </g>
            <g transform="matrix(-0.123646,-0.0829193,0.0796469,-0.118766,500.189,113.896)">
                <path d="M419.212,38.176C430.112,28.713 444.338,22.982 459.892,22.982C494.165,22.982 521.991,50.808 521.991,85.082C521.991,119.355 494.165,147.181 459.892,147.181C446.591,147.181 434.261,142.99 424.152,135.857" style="fill:none;stroke-width:8.45px;stroke:rgb(151,151,151);"/>
            </g>
            <g transform="matrix(0.674725,0,0,0.694702,202.302,13.2977)">
                <path d="M385.423,61.021L421.322,122.178L349.525,122.178L385.423,61.021Z" style="fill:none;stroke-width:2.19px;stroke-linecap:square;stroke:rgb(121,121,121);"/>
            </g>
            <path d="M462.743,54.94L498.99,84.346L487.6,98.033L462.743,54.94Z" style="fill:rgb(167,167,167);stroke-width:1.5px;stroke-linecap:square;stroke:rgb(121,130,143);"/>
        </g>
        <g transform="matrix(5.31116,0,0,4.72227,-1825.68,-301.888)">
            <g>
                <g>
                    <path d="M420.849,87.184L421.965,87.184L418.557,82.984L421.821,79.132L420.801,79.132L417.441,83.08L420.849,87.184ZM416.325,87.184L417.273,87.184L417.273,79.132L416.325,79.132L416.325,87.184Z" style="fill:rgb(60,85,122);fill-rule:nonzero;"/>
                    <path d="M423.333,87.184L428.145,87.184L428.145,86.38L424.281,86.38L424.281,83.44L427.233,83.44L427.233,82.636L424.281,82.636L424.281,79.936L428.109,79.936L428.109,79.132L423.333,79.132L423.333,87.184Z" style="fill:rgb(60,85,122);fill-rule:nonzero;"/>
                    <path d="M432.981,87.316C435.189,87.316 436.521,85.792 436.521,83.26L436.521,83.068C436.521,80.428 435.189,79 433.017,79C430.797,79 429.465,80.524 429.465,83.056L429.465,83.248C429.465,85.888 430.797,87.316 432.981,87.316ZM433.005,86.536C431.205,86.536 430.485,85.192 430.485,83.248L430.485,82.876C430.485,81.076 431.313,79.78 432.969,79.78C434.793,79.792 435.501,81.112 435.501,83.068L435.501,83.44C435.501,85.228 434.673,86.536 433.005,86.536Z" style="fill:rgb(60,85,122);fill-rule:nonzero;"/>
                    <path d="M438.129,87.184L439.089,87.184L439.089,83.956L440.733,83.956C442.269,83.956 443.301,83.092 443.301,81.508C443.301,79.996 442.425,79.132 440.613,79.132L438.129,79.132L438.129,87.184ZM439.089,83.164L439.089,79.936L440.517,79.936C441.825,79.936 442.281,80.428 442.281,81.568C442.281,82.648 441.789,83.164 440.541,83.164L439.089,83.164Z" style="fill:rgb(60,85,122);fill-rule:nonzero;"/>
                    <path d="M446.493,87.328C448.377,87.328 449.193,86.392 449.193,84.988C449.193,83.632 448.437,83.128 447.249,82.72L446.457,82.468C445.545,82.156 445.257,81.82 445.257,81.052C445.257,80.284 445.809,79.804 446.793,79.804C447.681,79.804 448.317,80.032 448.785,80.248L448.785,79.444C448.341,79.228 447.777,79 446.829,79C445.149,79 444.321,79.888 444.321,81.136C444.321,82.36 444.957,82.936 446.085,83.308L446.865,83.584C447.837,83.896 448.233,84.232 448.233,85.06C448.233,85.936 447.693,86.512 446.457,86.512C445.605,86.512 444.813,86.296 444.201,85.984L444.201,86.788C444.741,87.088 445.509,87.328 446.493,87.328Z" style="fill:rgb(60,85,122);fill-rule:nonzero;"/>
                </g>
            </g>
        </g>
        <g transform="matrix(2.56505,0,0,2.56505,-681.512,-89.6958)">
            <g>
                <g>
                    <path d="M417.081,85.936C417.081,86.128 417.135,86.276 417.243,86.38C417.351,86.484 417.497,86.536 417.681,86.536C417.913,86.536 418.067,86.468 418.143,86.332C418.219,86.196 418.265,86.06 418.281,85.924L419.505,85.924C419.505,86.18 419.463,86.42 419.379,86.644C419.295,86.868 419.173,87.06 419.013,87.22C418.853,87.388 418.661,87.52 418.437,87.616C418.213,87.712 417.961,87.76 417.681,87.76C417.305,87.76 416.981,87.68 416.709,87.52C416.437,87.36 416.229,87.148 416.085,86.884C415.997,86.724 415.937,86.54 415.905,86.332C415.873,86.124 415.857,85.896 415.857,85.648L415.857,83.644C415.857,83.396 415.873,83.168 415.905,82.96C415.937,82.752 415.997,82.568 416.085,82.408C416.229,82.144 416.437,81.932 416.709,81.772C416.981,81.612 417.305,81.532 417.681,81.532C417.961,81.532 418.215,81.58 418.443,81.676C418.671,81.772 418.863,81.906 419.019,82.078C419.175,82.25 419.295,82.456 419.379,82.696C419.463,82.936 419.505,83.196 419.505,83.476L418.281,83.476C418.281,83.228 418.227,83.046 418.119,82.93C418.011,82.814 417.865,82.756 417.681,82.756C417.497,82.756 417.351,82.814 417.243,82.93C417.135,83.046 417.081,83.22 417.081,83.452L417.081,85.936Z" style="fill:rgb(151,151,151);fill-rule:nonzero;"/>
                    <path d="M423.717,83.644C423.717,83.396 423.733,83.168 423.765,82.96C423.797,82.752 423.857,82.568 423.945,82.408C424.089,82.144 424.297,81.932 424.569,81.772C424.841,81.612 425.165,81.532 425.541,81.532C425.917,81.532 426.241,81.612 426.513,81.772C426.785,81.932 426.993,82.144 427.137,82.408C427.225,82.568 427.285,82.752 427.317,82.96C427.349,83.168 427.365,83.396 427.365,83.644L427.365,85.648C427.365,85.896 427.349,86.124 427.317,86.332C427.285,86.54 427.225,86.724 427.137,86.884C426.993,87.148 426.785,87.36 426.513,87.52C426.241,87.68 425.917,87.76 425.541,87.76C425.165,87.76 424.841,87.68 424.569,87.52C424.297,87.36 424.089,87.148 423.945,86.884C423.857,86.724 423.797,86.54 423.765,86.332C423.733,86.124 423.717,85.896 423.717,85.648L423.717,83.644ZM424.941,85.84C424.941,86.072 424.995,86.246 425.103,86.362C425.211,86.478 425.357,86.536 425.541,86.536C425.725,86.536 425.871,86.478 425.979,86.362C426.087,86.246 426.141,86.072 426.141,85.84L426.141,83.452C426.141,83.22 426.087,83.046 425.979,82.93C425.871,82.814 425.725,82.756 425.541,82.756C425.357,82.756 425.211,82.814 425.103,82.93C424.995,83.046 424.941,83.22 424.941,83.452L424.941,85.84Z" style="fill:rgb(151,151,151);fill-rule:nonzero;"/>
                    <path d="M431.865,81.604L433.089,81.604L433.089,82.192L433.113,82.192C433.241,82 433.395,81.842 433.575,81.718C433.755,81.594 433.985,81.532 434.265,81.532C434.529,81.532 434.749,81.596 434.925,81.724C435.101,81.852 435.245,81.992 435.357,82.144C435.509,81.976 435.677,81.832 435.861,81.712C436.045,81.592 436.301,81.532 436.629,81.532C436.781,81.532 436.937,81.558 437.097,81.61C437.257,81.662 437.401,81.748 437.529,81.868C437.657,81.988 437.761,82.142 437.841,82.33C437.921,82.518 437.961,82.748 437.961,83.02L437.961,87.688L436.737,87.688L436.737,83.476C436.737,83.252 436.685,83.076 436.581,82.948C436.477,82.82 436.329,82.756 436.137,82.756C435.905,82.756 435.745,82.828 435.657,82.972C435.569,83.116 435.525,83.324 435.525,83.596L435.525,87.688L434.301,87.688L434.301,83.476C434.301,83.252 434.249,83.076 434.145,82.948C434.041,82.82 433.893,82.756 433.701,82.756C433.469,82.756 433.309,82.828 433.221,82.972C433.133,83.116 433.089,83.324 433.089,83.596L433.089,87.688L431.865,87.688L431.865,81.604Z" style="fill:rgb(151,151,151);fill-rule:nonzero;"/>
                    <path d="M442.569,81.604L443.793,81.604L443.793,82.156C443.945,81.98 444.101,81.832 444.261,81.712C444.421,81.592 444.653,81.532 444.957,81.532C445.461,81.532 445.817,81.724 446.025,82.108C446.097,82.244 446.149,82.412 446.181,82.612C446.213,82.812 446.229,83.08 446.229,83.416L446.229,85.732C446.229,86.172 446.217,86.496 446.193,86.704C446.169,86.912 446.117,87.08 446.037,87.208C445.933,87.368 445.799,87.5 445.635,87.604C445.471,87.708 445.241,87.76 444.945,87.76C444.705,87.76 444.491,87.706 444.303,87.598C444.115,87.49 443.953,87.336 443.817,87.136L443.793,87.136L443.793,90.148L442.569,90.148L442.569,81.604ZM445.005,83.584C445.005,83.336 444.957,83.136 444.861,82.984C444.765,82.832 444.613,82.756 444.405,82.756C444.221,82.756 444.073,82.826 443.961,82.966C443.849,83.106 443.793,83.288 443.793,83.512L443.793,85.876C443.793,86.068 443.851,86.226 443.967,86.35C444.083,86.474 444.229,86.536 444.405,86.536C444.637,86.536 444.795,86.464 444.879,86.32C444.963,86.176 445.005,86.008 445.005,85.816L445.005,83.584Z" style="fill:rgb(151,151,151);fill-rule:nonzero;"/>
                    <path d="M454.497,87.688L453.273,87.688L453.273,87.1L453.249,87.1C453.121,87.292 452.967,87.45 452.787,87.574C452.607,87.698 452.377,87.76 452.097,87.76C451.945,87.76 451.793,87.734 451.641,87.682C451.489,87.63 451.353,87.544 451.233,87.424C451.113,87.304 451.017,87.15 450.945,86.962C450.873,86.774 450.837,86.544 450.837,86.272L450.837,81.604L452.061,81.604L452.061,85.816C452.061,86.04 452.113,86.216 452.217,86.344C452.321,86.472 452.469,86.536 452.661,86.536C452.893,86.536 453.053,86.464 453.141,86.32C453.229,86.176 453.273,85.968 453.273,85.696L453.273,81.604L454.497,81.604L454.497,87.688Z" style="fill:rgb(151,151,151);fill-rule:nonzero;"/>
                    <path d="M459.105,79.756L460.329,79.756L460.329,81.604L461.085,81.604L461.085,82.564L460.329,82.564L460.329,85.936C460.329,86.08 460.343,86.192 460.371,86.272C460.399,86.352 460.443,86.412 460.503,86.452C460.563,86.492 460.641,86.516 460.737,86.524C460.833,86.532 460.949,86.536 461.085,86.536L461.085,87.688L460.581,87.688C460.301,87.688 460.067,87.644 459.879,87.556C459.691,87.468 459.541,87.356 459.429,87.22C459.317,87.084 459.235,86.93 459.183,86.758C459.131,86.586 459.105,86.42 459.105,86.26L459.105,82.564L458.493,82.564L458.493,81.604L459.105,81.604L459.105,79.756Z" style="fill:rgb(151,151,151);fill-rule:nonzero;"/>
                    <path d="M466.269,85.108L466.269,85.936C466.269,86.128 466.323,86.276 466.431,86.38C466.539,86.484 466.685,86.536 466.869,86.536C467.101,86.536 467.255,86.468 467.331,86.332C467.407,86.196 467.453,86.06 467.469,85.924L468.693,85.924C468.693,86.18 468.651,86.42 468.567,86.644C468.483,86.868 468.361,87.06 468.201,87.22C468.041,87.388 467.849,87.52 467.625,87.616C467.401,87.712 467.149,87.76 466.869,87.76C466.493,87.76 466.169,87.68 465.897,87.52C465.625,87.36 465.417,87.148 465.273,86.884C465.185,86.724 465.125,86.54 465.093,86.332C465.061,86.124 465.045,85.896 465.045,85.648L465.045,83.644C465.045,83.396 465.061,83.168 465.093,82.96C465.125,82.752 465.185,82.568 465.273,82.408C465.417,82.144 465.625,81.932 465.897,81.772C466.169,81.612 466.493,81.532 466.869,81.532C467.149,81.532 467.403,81.58 467.631,81.676C467.859,81.772 468.051,81.906 468.207,82.078C468.363,82.25 468.483,82.452 468.567,82.684C468.651,82.916 468.693,83.164 468.693,83.428L468.693,85.108L466.269,85.108ZM466.269,84.148L467.469,84.148L467.469,83.452C467.469,83.22 467.415,83.046 467.307,82.93C467.199,82.814 467.053,82.756 466.869,82.756C466.685,82.756 466.539,82.814 466.431,82.93C466.323,83.046 466.269,83.22 466.269,83.452L466.269,84.148Z" style="fill:rgb(151,151,151);fill-rule:nonzero;"/>
                    <path d="M473.193,81.604L474.417,81.604L474.417,82.252C474.665,82.028 474.909,81.852 475.149,81.724C475.389,81.596 475.685,81.532 476.037,81.532L476.037,82.828C475.917,82.78 475.793,82.756 475.665,82.756C475.537,82.756 475.399,82.778 475.251,82.822C475.103,82.866 474.967,82.94 474.843,83.044C474.719,83.148 474.617,83.284 474.537,83.452C474.457,83.62 474.417,83.828 474.417,84.076L474.417,87.688L473.193,87.688L473.193,81.604Z" style="fill:rgb(151,151,151);fill-rule:nonzero;"/>
                    <path d="M482.349,83.308C482.341,83.1 482.275,82.944 482.151,82.84C482.027,82.736 481.885,82.684 481.725,82.684C481.533,82.684 481.385,82.746 481.281,82.87C481.177,82.994 481.125,83.136 481.125,83.296C481.125,83.408 481.153,83.518 481.209,83.626C481.265,83.734 481.409,83.832 481.641,83.92L482.361,84.208C482.817,84.384 483.131,84.624 483.303,84.928C483.475,85.232 483.561,85.564 483.561,85.924C483.561,86.18 483.515,86.418 483.423,86.638C483.331,86.858 483.205,87.052 483.045,87.22C482.885,87.388 482.693,87.52 482.469,87.616C482.245,87.712 482.001,87.76 481.737,87.76C481.497,87.76 481.269,87.72 481.053,87.64C480.837,87.56 480.647,87.444 480.483,87.292C480.319,87.14 480.185,86.95 480.081,86.722C479.977,86.494 479.921,86.228 479.913,85.924L481.065,85.924C481.089,86.092 481.147,86.248 481.239,86.392C481.331,86.536 481.493,86.608 481.725,86.608C481.901,86.608 482.059,86.55 482.199,86.434C482.339,86.318 482.409,86.156 482.409,85.948C482.409,85.78 482.365,85.636 482.277,85.516C482.189,85.396 482.029,85.292 481.797,85.204L481.209,84.988C480.825,84.844 480.523,84.63 480.303,84.346C480.083,84.062 479.973,83.716 479.973,83.308C479.973,83.052 480.021,82.814 480.117,82.594C480.213,82.374 480.343,82.186 480.507,82.03C480.671,81.874 480.861,81.752 481.077,81.664C481.293,81.576 481.525,81.532 481.773,81.532C482.021,81.532 482.251,81.578 482.463,81.67C482.675,81.762 482.857,81.886 483.009,82.042C483.161,82.198 483.281,82.386 483.369,82.606C483.457,82.826 483.501,83.06 483.501,83.308L482.349,83.308Z" style="fill:rgb(151,151,151);fill-rule:nonzero;"/>
                </g>
            </g>
        </g>
    </g>
</svg>
